<mxfile host="app.diagrams.net" modified="2021-02-20T02:15:51.642Z" agent="5.0 (Macintosh; Intel Mac OS X 10_15_7) AppleWebKit/537.36 (KHTML, like Gecko) Chrome/88.0.4324.182 Safari/537.36" etag="uk0yNUbpCTsUOOCvK8m9" version="14.4.2" type="github">
  <diagram id="C5RBs43oDa-KdzZeNtuy" name="Page-1">
    <mxGraphModel dx="2178" dy="877" grid="1" gridSize="10" guides="1" tooltips="1" connect="1" arrows="1" fold="1" page="1" pageScale="1" pageWidth="827" pageHeight="1169" math="0" shadow="0">
      <root>
        <mxCell id="WIyWlLk6GJQsqaUBKTNV-0" />
        <mxCell id="WIyWlLk6GJQsqaUBKTNV-1" parent="WIyWlLk6GJQsqaUBKTNV-0" />
        <mxCell id="zTuF5t1otfdxW5Cug0PX-0" value="" style="rounded=0;whiteSpace=wrap;html=1;fillColor=none;" vertex="1" parent="WIyWlLk6GJQsqaUBKTNV-1">
          <mxGeometry x="-20" y="490" width="850" height="630" as="geometry" />
        </mxCell>
        <mxCell id="LdH3LGQLJkcm7hxNGWKs-44" style="edgeStyle=orthogonalEdgeStyle;rounded=0;orthogonalLoop=1;jettySize=auto;html=1;exitX=1;exitY=0.5;exitDx=0;exitDy=0;fontSize=17;endSize=10;endArrow=classic;endFill=1;dashed=1;strokeWidth=1;fillColor=#d0cee2;strokeColor=#56517e;" parent="WIyWlLk6GJQsqaUBKTNV-1" source="WIyWlLk6GJQsqaUBKTNV-3" target="LdH3LGQLJkcm7hxNGWKs-0" edge="1">
          <mxGeometry relative="1" as="geometry" />
        </mxCell>
        <mxCell id="WIyWlLk6GJQsqaUBKTNV-3" value="Parent&lt;br style=&quot;font-size: 17px;&quot;&gt;inflateWidget" style="rounded=1;whiteSpace=wrap;html=1;fontSize=17;glass=0;strokeWidth=1;shadow=0;strokeColor=none;fillColor=#CCFFFF;" parent="WIyWlLk6GJQsqaUBKTNV-1" vertex="1">
          <mxGeometry x="150" y="560" width="150" height="60" as="geometry" />
        </mxCell>
        <mxCell id="LdH3LGQLJkcm7hxNGWKs-45" style="edgeStyle=orthogonalEdgeStyle;rounded=0;orthogonalLoop=1;jettySize=auto;html=1;exitX=1;exitY=0.5;exitDx=0;exitDy=0;fontSize=17;endSize=10;endArrow=classic;endFill=1;dashed=1;strokeWidth=1;fillColor=#d0cee2;strokeColor=#56517e;" parent="WIyWlLk6GJQsqaUBKTNV-1" source="LdH3LGQLJkcm7hxNGWKs-0" target="LdH3LGQLJkcm7hxNGWKs-2" edge="1">
          <mxGeometry relative="1" as="geometry" />
        </mxCell>
        <mxCell id="LdH3LGQLJkcm7hxNGWKs-0" value="Widget.createElement" style="rounded=1;whiteSpace=wrap;html=1;fontSize=17;glass=0;strokeWidth=1;shadow=0;strokeColor=none;fillColor=#CCFFFF;" parent="WIyWlLk6GJQsqaUBKTNV-1" vertex="1">
          <mxGeometry x="394" y="565" width="185" height="50" as="geometry" />
        </mxCell>
        <mxCell id="LdH3LGQLJkcm7hxNGWKs-74" style="edgeStyle=orthogonalEdgeStyle;rounded=0;orthogonalLoop=1;jettySize=auto;html=1;exitX=0.5;exitY=1;exitDx=0;exitDy=0;fontSize=17;endSize=10;endArrow=classic;endFill=1;elbow=vertical;curved=1;dashed=1;strokeWidth=1;fillColor=#d0cee2;strokeColor=#56517e;" parent="WIyWlLk6GJQsqaUBKTNV-1" source="LdH3LGQLJkcm7hxNGWKs-2" target="LdH3LGQLJkcm7hxNGWKs-15" edge="1">
          <mxGeometry relative="1" as="geometry" />
        </mxCell>
        <mxCell id="LdH3LGQLJkcm7hxNGWKs-2" value="mount" style="rounded=1;whiteSpace=wrap;html=1;fontSize=17;glass=0;strokeWidth=1;shadow=0;fillColor=#CCFFFF;strokeColor=none;" parent="WIyWlLk6GJQsqaUBKTNV-1" vertex="1">
          <mxGeometry x="657" y="570" width="150" height="40" as="geometry" />
        </mxCell>
        <mxCell id="LdH3LGQLJkcm7hxNGWKs-75" style="edgeStyle=orthogonalEdgeStyle;rounded=0;orthogonalLoop=1;jettySize=auto;html=1;exitX=0.5;exitY=1;exitDx=0;exitDy=0;fontSize=17;endSize=10;endArrow=classic;endFill=1;dashed=1;strokeWidth=1;fillColor=#d0cee2;strokeColor=#56517e;" parent="WIyWlLk6GJQsqaUBKTNV-1" source="LdH3LGQLJkcm7hxNGWKs-15" target="LdH3LGQLJkcm7hxNGWKs-72" edge="1">
          <mxGeometry relative="1" as="geometry" />
        </mxCell>
        <mxCell id="LdH3LGQLJkcm7hxNGWKs-76" style="edgeStyle=orthogonalEdgeStyle;rounded=0;orthogonalLoop=1;jettySize=auto;html=1;exitX=0.5;exitY=1;exitDx=0;exitDy=0;entryX=0.5;entryY=0;entryDx=0;entryDy=0;fontSize=17;endSize=10;endArrow=classic;endFill=1;dashed=1;strokeWidth=1;fillColor=#d0cee2;strokeColor=#56517e;" parent="WIyWlLk6GJQsqaUBKTNV-1" source="LdH3LGQLJkcm7hxNGWKs-15" target="LdH3LGQLJkcm7hxNGWKs-60" edge="1">
          <mxGeometry relative="1" as="geometry" />
        </mxCell>
        <mxCell id="LdH3LGQLJkcm7hxNGWKs-15" value="active&lt;br&gt;出现在屏幕上" style="rounded=1;whiteSpace=wrap;html=1;fontSize=17;fillColor=#fff2cc;strokeColor=none;" parent="WIyWlLk6GJQsqaUBKTNV-1" vertex="1">
          <mxGeometry x="330" y="700" width="300" height="60" as="geometry" />
        </mxCell>
        <mxCell id="LdH3LGQLJkcm7hxNGWKs-64" style="edgeStyle=orthogonalEdgeStyle;rounded=0;orthogonalLoop=1;jettySize=auto;html=1;exitX=0.5;exitY=1;exitDx=0;exitDy=0;entryX=0.5;entryY=0;entryDx=0;entryDy=0;fontSize=17;endSize=10;endArrow=classic;endFill=1;dashed=1;strokeWidth=1;fillColor=#d0cee2;strokeColor=#56517e;" parent="WIyWlLk6GJQsqaUBKTNV-1" source="LdH3LGQLJkcm7hxNGWKs-60" target="LdH3LGQLJkcm7hxNGWKs-61" edge="1">
          <mxGeometry relative="1" as="geometry" />
        </mxCell>
        <mxCell id="LdH3LGQLJkcm7hxNGWKs-60" value="ancestor&lt;br&gt;deactivateChild" style="rounded=1;whiteSpace=wrap;html=1;fontSize=17;strokeColor=none;fillColor=#CCFFFF;" parent="WIyWlLk6GJQsqaUBKTNV-1" vertex="1">
          <mxGeometry x="579" y="810" width="170" height="60" as="geometry" />
        </mxCell>
        <mxCell id="LdH3LGQLJkcm7hxNGWKs-65" style="edgeStyle=orthogonalEdgeStyle;rounded=0;orthogonalLoop=1;jettySize=auto;html=1;exitX=0.5;exitY=1;exitDx=0;exitDy=0;entryX=0.5;entryY=0;entryDx=0;entryDy=0;fontSize=17;endSize=10;endArrow=classic;endFill=1;dashed=1;strokeWidth=1;fillColor=#d0cee2;strokeColor=#56517e;" parent="WIyWlLk6GJQsqaUBKTNV-1" source="LdH3LGQLJkcm7hxNGWKs-61" target="LdH3LGQLJkcm7hxNGWKs-62" edge="1">
          <mxGeometry relative="1" as="geometry" />
        </mxCell>
        <mxCell id="LdH3LGQLJkcm7hxNGWKs-61" value="deactivate" style="rounded=1;whiteSpace=wrap;html=1;fontSize=17;glass=0;strokeWidth=1;shadow=0;strokeColor=none;fillColor=#CCFFFF;" parent="WIyWlLk6GJQsqaUBKTNV-1" vertex="1">
          <mxGeometry x="609" y="920" width="110" height="40" as="geometry" />
        </mxCell>
        <mxCell id="LdH3LGQLJkcm7hxNGWKs-62" value="unmount" style="rounded=1;whiteSpace=wrap;html=1;fontSize=17;glass=0;strokeWidth=1;shadow=0;strokeColor=none;fillColor=#CCFFFF;" parent="WIyWlLk6GJQsqaUBKTNV-1" vertex="1">
          <mxGeometry x="609" y="1010" width="110" height="40" as="geometry" />
        </mxCell>
        <mxCell id="LdH3LGQLJkcm7hxNGWKs-77" style="edgeStyle=orthogonalEdgeStyle;rounded=0;orthogonalLoop=1;jettySize=auto;html=1;exitX=0;exitY=0.5;exitDx=0;exitDy=0;entryX=0;entryY=0.5;entryDx=0;entryDy=0;fontSize=17;endSize=10;endArrow=classic;endFill=1;dashed=1;strokeWidth=1;fillColor=#d0cee2;strokeColor=#56517e;" parent="WIyWlLk6GJQsqaUBKTNV-1" source="LdH3LGQLJkcm7hxNGWKs-66" target="LdH3LGQLJkcm7hxNGWKs-15" edge="1">
          <mxGeometry relative="1" as="geometry" />
        </mxCell>
        <mxCell id="LdH3LGQLJkcm7hxNGWKs-66" value="update" style="rounded=1;whiteSpace=wrap;html=1;fontSize=17;glass=0;strokeWidth=1;shadow=0;strokeColor=none;fillColor=#CCFFFF;" parent="WIyWlLk6GJQsqaUBKTNV-1" vertex="1">
          <mxGeometry x="160" y="1010" width="110" height="40" as="geometry" />
        </mxCell>
        <mxCell id="LdH3LGQLJkcm7hxNGWKs-78" style="edgeStyle=orthogonalEdgeStyle;rounded=0;orthogonalLoop=1;jettySize=auto;html=1;exitX=0.5;exitY=1;exitDx=0;exitDy=0;entryX=0.5;entryY=0;entryDx=0;entryDy=0;fontSize=17;endSize=10;endArrow=classic;endFill=1;dashed=1;strokeWidth=1;fillColor=#d0cee2;strokeColor=#56517e;" parent="WIyWlLk6GJQsqaUBKTNV-1" source="LdH3LGQLJkcm7hxNGWKs-72" target="LdH3LGQLJkcm7hxNGWKs-66" edge="1">
          <mxGeometry relative="1" as="geometry" />
        </mxCell>
        <mxCell id="LdH3LGQLJkcm7hxNGWKs-81" value="相等" style="edgeLabel;html=1;align=center;verticalAlign=middle;resizable=0;points=[];fontSize=17;" parent="LdH3LGQLJkcm7hxNGWKs-78" vertex="1" connectable="0">
          <mxGeometry x="0.0615" y="-1" relative="1" as="geometry">
            <mxPoint as="offset" />
          </mxGeometry>
        </mxCell>
        <mxCell id="LdH3LGQLJkcm7hxNGWKs-79" style="edgeStyle=orthogonalEdgeStyle;rounded=0;orthogonalLoop=1;jettySize=auto;html=1;exitX=0.5;exitY=1;exitDx=0;exitDy=0;fontSize=17;endSize=10;endArrow=classic;endFill=1;dashed=1;strokeWidth=1;fillColor=#d0cee2;strokeColor=#56517e;" parent="WIyWlLk6GJQsqaUBKTNV-1" source="LdH3LGQLJkcm7hxNGWKs-72" target="LdH3LGQLJkcm7hxNGWKs-73" edge="1">
          <mxGeometry relative="1" as="geometry" />
        </mxCell>
        <mxCell id="LdH3LGQLJkcm7hxNGWKs-80" value="key&amp;amp;&amp;amp;runtimeType" style="edgeLabel;html=1;align=center;verticalAlign=middle;resizable=0;points=[];fontSize=17;" parent="LdH3LGQLJkcm7hxNGWKs-79" vertex="1" connectable="0">
          <mxGeometry x="-0.784" relative="1" as="geometry">
            <mxPoint as="offset" />
          </mxGeometry>
        </mxCell>
        <mxCell id="LdH3LGQLJkcm7hxNGWKs-82" value="不等" style="edgeLabel;html=1;align=center;verticalAlign=middle;resizable=0;points=[];fontSize=17;" parent="LdH3LGQLJkcm7hxNGWKs-79" vertex="1" connectable="0">
          <mxGeometry x="0.12" y="-3" relative="1" as="geometry">
            <mxPoint as="offset" />
          </mxGeometry>
        </mxCell>
        <mxCell id="LdH3LGQLJkcm7hxNGWKs-72" value="Parent&lt;br&gt;update" style="rounded=1;whiteSpace=wrap;html=1;fontSize=17;strokeColor=none;fillColor=#CCFFFF;" parent="WIyWlLk6GJQsqaUBKTNV-1" vertex="1">
          <mxGeometry x="275" y="810" width="120" height="60" as="geometry" />
        </mxCell>
        <mxCell id="LdH3LGQLJkcm7hxNGWKs-73" value="unmount" style="rounded=1;whiteSpace=wrap;html=1;fontSize=17;glass=0;strokeWidth=1;shadow=0;strokeColor=none;fillColor=#CCFFFF;" parent="WIyWlLk6GJQsqaUBKTNV-1" vertex="1">
          <mxGeometry x="390" y="1010" width="110" height="40" as="geometry" />
        </mxCell>
        <mxCell id="zTuF5t1otfdxW5Cug0PX-2" value="状态" style="rounded=1;whiteSpace=wrap;html=1;fontSize=17;fillColor=#fff2cc;strokeColor=none;" vertex="1" parent="WIyWlLk6GJQsqaUBKTNV-1">
          <mxGeometry x="20" y="630" width="80" height="30" as="geometry" />
        </mxCell>
        <mxCell id="zTuF5t1otfdxW5Cug0PX-3" value="方法" style="rounded=1;whiteSpace=wrap;html=1;fontSize=17;glass=0;strokeWidth=1;shadow=0;strokeColor=none;fillColor=#CCFFFF;" vertex="1" parent="WIyWlLk6GJQsqaUBKTNV-1">
          <mxGeometry x="20" y="680" width="80" height="30" as="geometry" />
        </mxCell>
      </root>
    </mxGraphModel>
  </diagram>
</mxfile>
